<svg width="39" height="28" viewBox="0 0 39 28" fill="none" xmlns="http://www.w3.org/2000/svg">
<path d="M9.74543 1.43635C8.04544 5.63634 7.02044 9.21134 6.67044 12.1613C9.27044 12.0613 11.3704 12.6863 12.9704 14.0363C14.6204 15.3363 15.4454 17.0613 15.4454 19.2113C15.4454 21.5613 14.6954 23.5113 13.1954 25.0614C11.7454 26.5613 9.92044 27.3113 7.72044 27.3113C5.62044 27.3113 3.79544 26.5363 2.24544 24.9863C0.745435 23.4363 -0.00456491 21.5113 -0.00456491 19.2113C-0.00456491 18.0613 0.170435 16.8863 0.520435 15.6864C0.870435 14.4363 1.59544 12.6363 2.69544 10.2863C3.84544 7.93634 5.62044 4.63634 8.02044 0.38635L9.74543 1.43635ZM33.2954 1.43635C31.5954 5.63634 30.5704 9.21134 30.2204 12.1613C32.8204 12.0613 34.9204 12.6863 36.5204 14.0363C38.1704 15.3363 38.9954 17.0613 38.9954 19.2113C38.9954 21.5613 38.2454 23.5113 36.7454 25.0614C35.2954 26.5613 33.4704 27.3113 31.2704 27.3113C29.1704 27.3113 27.3454 26.5363 25.7954 24.9863C24.2954 23.4363 23.5454 21.5113 23.5454 19.2113C23.5454 18.0613 23.7204 16.8863 24.0704 15.6864C24.4204 14.4363 25.1454 12.6363 26.2454 10.2863C27.3954 7.93634 29.1704 4.63634 31.5704 0.38635L33.2954 1.43635Z" fill="#C9AC8C"/>
</svg>
